<!-- <?xml version="1.0" standalone="no"?>
<!DOCTYPE svg PUBLIC "-//W3C//DTD SVG 20010904//EN"
 "http://www.w3.org/TR/2001/REC-SVG-20010904/DTD/svg10.dtd"> -->
<svg version="1.0" xmlns="http://www.w3.org/2000/svg"
 width="2048.000000pt" height="2048.000000pt" viewBox="0 0 2048.000000 2048.000000"
 preserveAspectRatio="xMidYMid meet">

<g transform="translate(0.000000,2048.000000) scale(0.100000,-0.100000)"
fill="#000000" stroke="none">
<path d="M10080 16015 c-100 -28 -160 -98 -160 -188 0 -106 50 -159 197 -207
131 -44 152 -55 168 -94 39 -92 -55 -159 -190 -135 -32 6 -82 19 -110 30 -27
10 -52 19 -55 19 -3 0 -3 -25 0 -57 5 -54 6 -57 42 -69 20 -7 70 -18 112 -24
190 -29 326 58 326 207 0 106 -48 163 -176 207 -143 50 -167 61 -187 88 -28
37 -14 85 32 111 45 27 147 26 224 -1 l58 -21 -3 56 c-3 55 -4 56 -41 69 -63
22 -175 26 -237 9z"/>
<path d="M10706 15979 c-4 -28 -6 -53 -4 -55 2 -1 48 -7 102 -13 54 -5 100
-12 102 -14 3 -2 -7 -124 -21 -270 -14 -146 -25 -281 -25 -300 0 -35 0 -35 53
-39 28 -2 53 -4 54 -3 1 0 14 136 29 300 14 165 27 301 29 303 1 2 47 -2 101
-7 54 -6 100 -8 103 -6 8 9 13 105 5 105 -14 0 -424 39 -475 45 l-46 5 -7 -51z"/>
<path d="M9468 15943 c-19 -3 -28 -10 -28 -23 0 -18 95 -620 106 -668 4 -21 8
-23 52 -16 26 3 51 10 55 14 5 4 -17 163 -49 354 l-57 346 -26 -1 c-14 -1 -38
-4 -53 -6z"/>
<path d="M8880 15810 c-56 -11 -279 -76 -287 -84 -6 -6 174 -654 187 -675 3
-6 26 -4 58 5 46 14 52 18 46 36 -19 61 -64 225 -64 234 0 6 32 20 70 31 l70
21 108 -114 107 -113 58 16 c31 9 57 19 57 23 0 4 -49 58 -110 122 -107 113
-109 116 -90 133 11 10 29 38 41 62 46 95 -1 242 -91 288 -35 18 -107 24 -160
15z m99 -116 c28 -20 51 -72 51 -114 0 -50 -43 -84 -141 -114 -47 -14 -89 -26
-95 -26 -5 0 -23 49 -40 110 l-31 109 51 15 c109 31 122 34 151 35 17 1 41 -6
54 -15z"/>
<path d="M12113 15726 c-118 -37 -198 -133 -237 -283 -47 -182 17 -335 171
-404 71 -33 173 -51 222 -41 30 7 36 14 52 59 l18 52 -32 -7 c-94 -21 -197 3
-261 60 -51 44 -69 88 -68 165 1 111 72 247 151 287 82 43 203 18 289 -59 l50
-45 18 52 17 52 -34 28 c-96 81 -250 117 -356 84z"/>
<path d="M8133 15566 c-24 -11 -43 -23 -43 -28 0 -4 27 -65 60 -134 l59 -125
-147 -70 c-80 -38 -155 -72 -167 -75 -17 -4 -27 11 -74 113 -30 65 -58 122
-62 127 -8 9 -85 -20 -95 -35 -4 -7 278 -624 292 -638 5 -5 92 28 98 37 2 4
-27 70 -64 147 -37 77 -66 143 -64 146 4 7 309 149 321 149 4 0 37 -63 72
-140 35 -77 69 -140 75 -140 6 1 29 11 52 23 l40 22 -146 313 c-80 172 -150
316 -156 320 -5 5 -28 -1 -51 -12z"/>
<path d="M12732 15184 c-89 -172 -162 -316 -162 -319 0 -6 76 -45 89 -45 5 0
42 63 81 140 l72 139 159 -80 c87 -43 159 -84 159 -89 0 -6 -32 -71 -71 -146
-39 -74 -70 -137 -68 -138 18 -16 93 -46 99 -39 8 8 286 547 307 594 12 27 11
28 -34 53 -25 15 -47 25 -48 24 -1 -2 -31 -58 -66 -125 -35 -68 -67 -123 -72
-123 -9 0 -217 103 -274 137 l-42 25 64 129 65 129 -48 24 -49 25 -161 -315z"/>
<path d="M7250 15091 c-97 -30 -200 -111 -245 -192 -27 -49 -30 -63 -30 -144
0 -82 3 -96 34 -157 46 -92 127 -180 199 -215 81 -40 182 -40 266 0 76 35 141
89 177 145 30 48 30 53 -14 107 l-25 30 -15 -35 c-23 -55 -82 -116 -139 -144
-127 -63 -252 -5 -338 156 -63 118 -40 231 62 304 44 32 132 64 175 64 l24 0
-32 45 c-33 46 -48 51 -99 36z"/>
<path d="M13636 14810 c-162 -215 -177 -243 -184 -332 -4 -59 -1 -75 23 -123
48 -99 170 -176 274 -174 112 2 166 45 334 267 76 100 140 188 143 195 6 16
-72 74 -84 63 -4 -4 -68 -87 -142 -184 -151 -197 -192 -234 -262 -234 -54 0
-91 18 -137 66 -27 28 -35 45 -39 85 -3 31 1 64 9 83 7 18 74 113 147 211 73
99 136 185 138 191 4 11 -61 66 -78 66 -3 0 -67 -81 -142 -180z"/>
<path d="M14299 14141 c-134 -129 -251 -240 -259 -247 -12 -12 -9 -19 24 -53
l39 -40 101 95 101 95 51 -57 51 -58 -48 -144 -49 -145 37 -41 c21 -23 41 -41
46 -41 4 0 31 68 58 152 50 152 50 152 75 143 73 -28 160 -2 226 67 44 45 58
79 58 137 0 66 -40 131 -158 256 l-108 114 -245 -233z m396 -105 c13 -65 -51
-136 -121 -136 -35 0 -75 29 -149 108 l-50 54 85 79 85 79 72 -75 c50 -52 74
-86 78 -109z"/>
<path d="M6183 14221 l-31 -37 184 -163 c101 -90 184 -167 184 -171 0 -3 -87
4 -192 16 -106 13 -244 28 -307 35 l-113 12 -34 -39 c-18 -21 -33 -41 -33 -44
1 -8 507 -460 522 -465 7 -3 27 11 45 34 l32 39 -186 167 c-102 92 -183 169
-181 171 2 2 140 -12 308 -32 l303 -36 33 36 c18 20 33 40 33 45 0 12 -512
471 -525 470 -5 0 -24 -17 -42 -38z"/>
<path d="M14979 13581 c-60 -20 -156 -79 -206 -128 -109 -106 -136 -237 -75
-367 33 -69 103 -153 158 -187 l33 -20 47 31 46 32 -50 29 c-101 57 -169 170
-156 258 22 143 238 284 369 241 83 -27 175 -155 175 -242 0 -21 4 -38 8 -38
4 0 27 14 51 31 38 29 41 34 36 63 -21 98 -122 234 -209 278 -45 24 -179 35
-227 19z"/>
<path d="M5565 13460 c-15 -22 -26 -42 -24 -44 17 -14 562 -388 574 -392 20
-8 72 73 57 88 -23 23 -557 387 -568 388 -6 0 -24 -18 -39 -40z"/>
<path d="M15575 12869 c-33 -16 -170 -81 -304 -144 -135 -63 -248 -118 -252
-122 -6 -6 22 -88 35 -100 1 -2 68 28 147 66 l144 70 77 -157 c43 -86 78 -161
78 -165 0 -5 -65 -39 -145 -77 l-145 -69 22 -46 c12 -25 27 -45 33 -45 10 0
623 287 634 296 3 2 -6 26 -19 53 l-22 49 -125 -59 c-69 -32 -128 -59 -133
-59 -11 0 -163 324 -153 327 14 5 226 107 240 116 9 6 7 19 -9 52 -12 25 -27
45 -32 44 -6 0 -38 -13 -71 -30z"/>
<path d="M5082 12628 c-17 -40 -33 -78 -34 -83 -2 -6 92 -98 207 -204 116
-106 212 -197 214 -203 2 -5 -20 -7 -55 -4 -91 9 -525 29 -529 24 -2 -2 -19
-40 -38 -84 l-35 -80 322 -137 c177 -75 325 -137 328 -137 8 0 32 43 42 76 6
19 -15 30 -259 134 -146 62 -264 114 -263 115 2 2 116 -3 253 -11 138 -7 276
-13 307 -14 l57 0 21 46 c11 26 20 50 20 55 0 4 -101 101 -225 215 -124 114
-225 208 -225 210 0 2 33 -11 73 -28 39 -17 160 -68 267 -113 l195 -83 22 47
c27 57 27 57 6 64 -10 3 -156 64 -326 136 -169 72 -309 131 -311 131 -2 0 -17
-33 -34 -72z"/>
<path d="M4834 11513 c-130 -38 -212 -151 -221 -305 -10 -151 44 -245 177
-312 220 -110 459 -46 531 142 29 77 36 183 15 254 -48 168 -303 280 -502 221z
m247 -130 c72 -23 143 -91 159 -153 24 -90 -23 -200 -103 -242 -55 -29 -167
-30 -252 -3 -78 25 -148 91 -165 155 -14 52 -2 125 30 177 53 87 184 113 331
66z"/>
<path d="M4735 10516 c-89 -28 -145 -75 -185 -156 -24 -47 -39 -170 -40 -326
l0 -81 203 -6 c111 -4 273 -7 360 -7 l158 0 -3 183 c-3 182 -3 184 -33 242
-37 72 -104 126 -185 149 -67 19 -218 20 -275 2z m282 -130 c84 -44 108 -93
108 -226 l0 -105 -160 2 c-88 1 -202 2 -254 2 l-93 1 3 108 c4 98 7 113 32
150 48 73 145 105 274 90 34 -4 75 -14 90 -22z"/>
<path d="M8960 10330 c-6 -11 -8 -20 -4 -20 3 0 1 -6 -5 -13 -10 -13 -34 -116
-45 -194 -2 -17 -7 -37 -11 -43 -16 -26 -13 -285 5 -380 10 -52 21 -115 25
-140 15 -96 165 -447 196 -458 5 -2 9 -12 9 -23 0 -11 7 -22 15 -25 8 -3 17
-14 20 -25 4 -10 22 -37 41 -60 19 -22 34 -46 34 -53 0 -6 8 -19 18 -27 9 -9
41 -45 71 -80 65 -76 291 -298 358 -352 27 -21 70 -56 96 -77 27 -22 51 -40
55 -40 4 0 21 -12 37 -27 16 -16 33 -27 37 -25 5 1 8 -2 8 -8 0 -5 4 -10 10
-10 12 0 132 -92 127 -97 -6 -5 -119 34 -126 44 -11 15 -60 43 -76 43 -8 0
-15 5 -15 11 0 5 -4 8 -9 5 -4 -3 -16 3 -26 14 -10 11 -24 20 -32 20 -7 0 -13
4 -13 9 0 5 -10 11 -23 15 -13 3 -34 15 -47 26 -13 11 -29 20 -37 20 -7 0 -13
4 -13 9 0 5 -16 16 -36 26 -20 9 -43 24 -53 33 -9 10 -30 24 -46 32 -17 8 -47
29 -68 48 -21 18 -60 46 -87 63 -28 17 -50 35 -50 39 0 5 -9 11 -20 15 -11 3
-34 22 -52 41 -18 19 -37 34 -43 34 -5 0 -30 20 -54 45 -24 25 -48 45 -53 45
-4 0 -8 7 -8 15 0 8 -4 15 -8 15 -10 0 -142 130 -189 186 -85 101 -101 121
-123 154 -13 19 -27 37 -30 40 -3 3 -16 25 -29 50 -14 25 -35 61 -48 80 l-24
35 5 -30 c7 -43 25 -105 41 -140 7 -16 20 -53 28 -80 14 -49 65 -168 89 -210
7 -11 27 -49 46 -85 19 -36 47 -83 62 -105 15 -22 53 -78 83 -125 31 -47 67
-96 81 -109 14 -14 26 -29 26 -34 0 -5 15 -24 33 -42 17 -19 52 -57 77 -85 25
-28 74 -79 109 -113 35 -34 73 -72 85 -85 11 -13 35 -32 53 -43 18 -11 35 -29
38 -39 3 -10 15 -22 25 -25 11 -3 34 -22 52 -41 18 -19 38 -34 45 -34 6 0 16
-6 20 -14 4 -8 41 -38 81 -66 117 -82 86 -91 -63 -18 -86 43 -193 101 -211
115 -20 16 -49 34 -79 47 -16 8 -39 23 -50 33 -11 10 -48 36 -82 57 -35 20
-63 41 -63 46 0 4 -14 13 -30 20 -17 7 -38 23 -48 34 -9 12 -25 27 -35 33 -67
37 -461 428 -508 504 -26 43 -2 -67 30 -136 5 -11 24 -51 42 -90 28 -61 79
-146 109 -182 5 -7 10 -15 10 -18 0 -9 52 -77 74 -97 10 -10 16 -18 13 -18 -3
0 4 -10 16 -23 66 -70 117 -129 117 -137 0 -4 9 -10 19 -13 10 -2 27 -18 37
-33 10 -16 25 -33 34 -38 8 -5 28 -23 44 -39 52 -52 174 -113 218 -110 10 1
20 -2 23 -8 4 -5 17 -9 31 -9 13 0 24 -3 24 -7 0 -5 10 -8 23 -9 30 -1 66 -10
102 -24 46 -18 136 -39 172 -40 17 0 35 -5 38 -11 4 -6 13 -8 21 -5 7 3 32 -1
56 -10 23 -8 55 -17 72 -19 17 -3 42 -10 56 -14 14 -5 50 -15 80 -22 30 -7 83
-25 117 -41 34 -15 76 -31 93 -35 18 -3 34 -12 37 -19 3 -8 13 -14 22 -14 9 0
27 -9 41 -20 14 -11 30 -20 37 -20 16 0 73 -33 73 -42 0 -5 7 -8 15 -8 8 0 15
-7 15 -15 0 -8 7 -15 16 -15 41 0 303 -253 336 -325 6 -14 15 -25 19 -25 4 0
11 -9 14 -20 6 -19 35 -29 35 -12 0 5 68 78 150 162 127 129 156 165 185 227
45 92 58 165 52 273 -5 75 -11 95 -49 170 -54 107 -154 210 -243 249 -68 30
-93 42 -115 55 -14 8 -43 23 -65 32 -22 10 -42 21 -45 24 -12 13 -60 40 -73
40 -8 0 -20 7 -27 15 -7 9 -43 32 -79 52 -36 21 -72 43 -80 50 -7 8 -31 23
-52 34 -21 10 -39 24 -39 29 0 6 -9 10 -20 10 -11 0 -20 4 -20 8 0 5 -12 15
-27 22 -16 8 -49 31 -75 52 -26 21 -51 38 -56 38 -5 0 -16 7 -23 16 -7 9 -36
31 -64 49 -27 18 -65 46 -82 64 -18 17 -37 31 -43 31 -5 0 -25 15 -43 33 -19
17 -56 50 -82 72 -116 98 -465 459 -465 480 0 4 -14 21 -31 39 -17 18 -36 42
-42 53 -7 11 -37 57 -68 104 -30 46 -64 100 -74 119 -33 64 -38 75 -67 130
-15 30 -28 64 -28 75 0 11 -9 38 -20 60 -11 22 -19 48 -20 57 0 9 -4 19 -9 22
-11 7 -31 120 -33 189 -2 26 -5 47 -9 47 -4 0 -6 36 -5 80 1 44 1 80 -1 80 -1
0 -7 -9 -13 -20z"/>
<path d="M5183 9643 c-40 -5 -40 -6 -13 -193 10 -74 16 -138 12 -141 -9 -8
-192 -33 -197 -27 -3 2 -11 56 -20 119 -25 188 -22 179 -53 179 -15 0 -36 -3
-48 -6 l-21 -5 18 -132 c26 -192 35 -171 -77 -186 -53 -7 -97 -11 -98 -9 -1 2
-10 64 -20 138 -27 205 -21 189 -70 183 -22 -3 -45 -9 -49 -13 -9 -8 41 -419
52 -432 3 -3 164 15 356 41 l350 47 -3 35 c-2 19 -14 115 -28 214 -13 99 -24
183 -24 188 0 7 -8 7 -67 0z"/>
<path d="M7076 9173 c4 -147 6 -168 41 -318 22 -96 81 -259 115 -320 6 -11 25
-45 40 -75 34 -64 145 -220 157 -220 5 0 14 -13 20 -29 7 -15 23 -34 35 -40
12 -7 30 -26 40 -41 9 -16 30 -37 46 -47 17 -9 33 -25 36 -35 3 -10 13 -22 22
-27 9 -5 53 -39 97 -76 78 -64 152 -119 219 -160 18 -11 52 -33 76 -49 24 -16
60 -35 79 -43 20 -9 38 -18 41 -22 7 -10 230 -121 243 -121 6 0 47 -17 91 -39
45 -21 96 -42 113 -46 18 -3 35 -11 38 -16 4 -5 19 -9 36 -9 16 0 29 -4 29 -8
0 -12 66 -40 112 -48 21 -3 42 -12 48 -19 18 -22 -23 -28 -73 -11 -24 8 -81
20 -126 26 -45 6 -92 15 -104 20 -31 12 -183 55 -242 69 -27 7 -63 18 -80 26
-36 16 -122 45 -135 45 -6 0 -43 15 -82 33 -40 19 -89 39 -108 45 -19 7 -66
28 -104 47 -39 19 -78 35 -87 35 -10 0 -20 4 -23 9 -3 4 -36 23 -73 42 -37 19
-95 52 -129 74 -34 22 -77 49 -95 60 -121 71 -213 142 -317 245 -88 87 -91 88
-36 9 17 -25 34 -54 38 -65 3 -10 17 -32 31 -48 14 -16 25 -33 25 -37 0 -4 18
-29 40 -56 22 -26 55 -66 73 -87 50 -61 225 -236 292 -291 33 -28 70 -60 83
-72 12 -13 28 -23 35 -23 6 0 27 -16 46 -35 19 -19 38 -35 43 -35 6 0 23 -10
38 -22 15 -13 36 -29 46 -36 51 -33 122 -78 149 -93 17 -9 46 -26 65 -37 19
-12 63 -35 98 -51 34 -17 74 -39 89 -51 14 -11 31 -20 38 -20 12 0 80 -29 115
-49 22 -13 60 -28 105 -43 22 -7 51 -20 64 -30 13 -10 29 -18 36 -18 7 0 19
-7 26 -17 13 -15 9 -16 -52 -10 -36 4 -108 20 -160 36 -52 16 -111 33 -133 37
-37 6 -210 65 -401 135 -49 18 -119 47 -155 66 -36 18 -70 33 -76 33 -10 0
-92 40 -124 60 -8 5 -44 23 -80 41 -91 44 -133 66 -147 79 -7 6 -39 25 -70 42
-32 17 -67 38 -78 48 -11 9 -32 24 -46 33 -25 15 -27 15 -22 -1 2 -9 20 -35
39 -57 18 -22 34 -44 34 -48 0 -28 292 -309 355 -341 15 -8 31 -19 34 -23 15
-22 72 -54 83 -47 7 4 10 3 5 -1 -4 -5 12 -20 35 -33 24 -14 45 -28 48 -31 3
-4 28 -18 55 -32 28 -15 64 -33 80 -42 36 -19 186 -90 235 -110 19 -8 55 -24
80 -35 42 -19 85 -34 285 -102 52 -18 81 -33 83 -44 3 -14 -5 -16 -70 -10 -40
3 -90 10 -111 15 -20 6 -67 12 -103 15 -99 8 -303 46 -327 61 -7 4 -16 8 -22
9 -44 7 -134 27 -150 33 -11 5 -47 16 -80 26 -33 10 -64 22 -70 27 -5 4 -21 8
-36 8 -15 0 -31 5 -34 10 -3 6 -15 10 -26 10 -11 0 -47 14 -81 30 -33 17 -65
30 -72 30 -6 0 -48 18 -94 40 -46 22 -88 40 -95 40 -17 0 175 -183 235 -223
29 -19 62 -44 74 -55 11 -11 31 -23 45 -27 13 -4 26 -11 29 -14 8 -9 89 -61
96 -61 5 0 170 -77 216 -101 10 -5 26 -9 36 -9 9 0 26 -6 37 -13 11 -7 40 -19
65 -26 25 -7 81 -23 125 -37 44 -13 105 -30 135 -38 86 -23 475 -78 680 -96
126 -11 296 -37 320 -50 9 -4 36 -11 60 -14 54 -8 139 -26 160 -34 8 -3 33
-11 55 -17 143 -43 265 -99 265 -122 -1 -17 -52 -61 -106 -91 -28 -15 -252
-238 -309 -307 -120 -145 -335 -300 -335 -242 0 7 9 18 20 25 11 7 20 19 20
28 0 8 15 29 33 45 27 25 30 31 17 40 -11 8 -9 9 9 4 15 -5 21 -3 17 3 -3 6 0
12 6 15 7 3 -16 3 -52 1 -36 -3 -119 -5 -185 -5 -66 -1 -127 -4 -135 -9 -8 -4
-78 -11 -155 -15 -77 -3 -167 -10 -200 -15 -33 -5 -123 -14 -200 -20 -77 -6
-171 -17 -210 -25 -38 -8 -108 -21 -155 -29 -165 -30 -268 -54 -313 -74 -25
-11 -69 -27 -99 -36 -55 -16 -205 -91 -238 -118 -10 -9 -28 -22 -40 -28 -36
-19 -206 -198 -197 -207 2 -1 26 8 53 21 27 14 69 32 94 41 25 10 53 21 63 26
17 9 64 25 147 49 25 8 50 17 55 20 16 11 113 39 187 54 37 8 71 17 77 21 26
15 269 54 349 54 34 1 62 5 62 9 0 7 148 9 243 4 49 -3 28 -19 -40 -30 -115
-18 -187 -32 -203 -39 -8 -3 -22 -7 -30 -8 -148 -24 -205 -36 -214 -45 -5 -5
-17 -10 -26 -10 -8 0 -51 -11 -95 -25 -44 -14 -96 -30 -115 -36 -37 -11 -93
-32 -147 -55 -17 -8 -35 -14 -40 -14 -6 0 -23 -6 -39 -14 -16 -8 -56 -26 -89
-41 -33 -14 -69 -31 -80 -37 -11 -7 -49 -27 -85 -46 -36 -18 -82 -47 -102 -63
-20 -16 -41 -29 -47 -29 -13 0 -207 -156 -258 -208 -23 -24 -52 -57 -64 -73
l-22 -31 29 16 c97 55 118 66 126 66 5 0 39 15 76 33 37 19 81 37 97 41 17 4
44 13 60 21 70 32 104 45 150 56 28 6 58 15 67 20 10 5 27 9 38 9 12 0 19 4
16 9 -3 5 16 12 42 16 26 4 52 10 57 14 6 5 51 14 100 21 50 7 97 16 106 21
22 11 107 25 263 44 132 16 565 37 579 28 4 -3 3 -11 -4 -19 -7 -9 -32 -14
-70 -14 -32 0 -78 -4 -101 -10 -74 -17 -281 -59 -323 -65 -63 -10 -125 -29
-125 -38 0 -4 -3 -6 -8 -4 -6 5 -66 -9 -112 -25 -132 -45 -174 -62 -180 -69
-3 -3 -23 -12 -45 -19 -22 -7 -51 -19 -64 -27 -13 -9 -54 -31 -90 -51 -36 -19
-79 -45 -94 -58 -16 -13 -33 -24 -38 -24 -14 0 -186 -155 -229 -206 -80 -96
-100 -123 -100 -137 0 -8 -9 -22 -19 -31 -18 -16 -50 -81 -66 -135 -6 -21 -2
-19 49 18 30 23 59 41 64 41 4 0 17 8 28 18 24 22 237 142 252 142 7 0 12 5
12 10 0 6 6 10 13 10 6 0 26 7 42 16 17 9 53 25 80 36 28 11 68 28 90 38 22
10 49 22 60 26 11 4 49 18 85 31 36 13 97 33 135 45 39 11 93 28 120 38 94 32
123 41 192 54 37 8 104 23 148 34 44 12 109 26 145 32 118 19 274 42 345 50
39 5 111 13 160 19 50 6 272 15 495 21 507 12 800 32 1019 71 30 5 69 9 88 9
33 0 57 5 223 46 52 12 113 26 135 29 159 24 633 211 741 292 17 13 37 23 45
23 8 0 29 14 48 30 18 17 46 37 62 45 16 9 29 20 29 25 0 6 5 10 11 10 13 0
141 111 204 176 77 80 142 160 186 229 67 105 68 108 81 135 7 14 18 28 25 33
7 4 15 23 19 42 3 20 10 38 14 40 12 7 55 101 73 160 9 28 27 82 40 120 14 39
28 88 31 110 4 22 13 60 22 85 8 25 32 101 54 168 22 68 49 136 60 152 11 15
20 34 20 42 0 17 37 97 55 118 7 8 16 26 20 39 4 13 25 49 46 80 22 31 39 61
39 68 0 6 10 20 23 30 13 10 32 31 43 48 28 44 189 202 213 210 12 3 21 10 21
15 0 11 167 110 185 110 8 0 16 4 19 9 3 5 18 11 33 14 16 3 61 14 100 26 40
12 83 21 95 21 31 0 -118 76 -173 89 -24 5 -79 15 -122 23 -72 11 -81 15 -108
49 -16 20 -29 41 -29 47 0 16 -99 107 -165 151 -55 38 -111 59 -300 114 -54
16 -259 15 -315 -1 -127 -37 -208 -68 -249 -93 -26 -16 -61 -36 -78 -46 -18
-9 -33 -20 -33 -24 0 -5 -17 -20 -37 -34 -82 -54 -403 -367 -633 -616 -63 -68
-148 -159 -190 -201 -41 -42 -83 -89 -92 -105 -30 -50 -53 -42 -87 29 -67 140
-129 223 -245 333 -46 44 -99 91 -116 104 -46 35 -189 121 -202 121 -5 0 -22
7 -36 15 -40 21 -141 65 -152 65 -5 0 -49 13 -97 29 -49 16 -113 34 -143 40
-156 30 -220 45 -275 61 -33 10 -87 24 -120 31 -33 7 -64 16 -69 21 -6 4 -22
8 -36 8 -14 0 -34 6 -45 13 -11 8 -49 20 -85 27 -36 7 -70 17 -76 22 -7 5 -16
8 -20 6 -5 -1 -29 8 -54 19 -25 12 -65 26 -90 32 -41 11 -74 24 -140 56 -14 7
-43 18 -65 25 -22 7 -73 28 -113 46 -41 19 -76 34 -79 34 -3 0 -40 17 -82 39
-42 21 -87 42 -100 46 -14 4 -48 23 -77 41 -29 19 -58 34 -64 34 -7 0 -26 10
-43 23 -18 12 -48 30 -67 41 -19 10 -54 31 -78 47 -24 16 -47 29 -51 29 -12 0
-255 182 -291 219 -17 17 -37 31 -44 31 -7 0 -19 11 -26 25 -7 14 -17 25 -21
25 -22 0 -255 264 -286 324 -9 17 -28 47 -43 66 -15 19 -31 46 -35 60 -4 14
-18 41 -31 61 -22 35 -84 207 -84 234 0 8 -4 16 -9 19 -5 4 -8 -47 -5 -121z
m5348 -1418 c22 -34 20 -69 -7 -101 -21 -24 -30 -27 -83 -26 -62 2 -124 27
-124 50 0 15 53 71 84 88 12 7 42 12 67 13 39 1 49 -3 63 -24z m-819 -275 c-3
-5 -12 -10 -18 -10 -7 0 -6 4 3 10 19 12 23 12 15 0z m-3382 -2627 c-7 -2 -19
-2 -25 0 -7 3 -2 5 12 5 14 0 19 -2 13 -5z"/>
<path d="M5303 8909 c-18 -5 -33 -15 -33 -22 0 -7 18 -75 40 -152 22 -77 40
-145 40 -150 0 -8 -190 -69 -196 -62 -1 1 -20 67 -42 146 -23 79 -43 145 -44
147 -8 8 -88 -22 -88 -33 0 -11 61 -239 75 -279 3 -10 -183 -70 -190 -62 -2 2
-22 71 -44 153 -23 83 -45 153 -49 157 -11 11 -92 -15 -92 -29 0 -20 110 -407
118 -415 6 -5 670 178 681 188 2 2 -22 98 -54 214 -63 225 -58 218 -122 199z"/>
<path d="M5466 8114 c-55 -71 -101 -131 -103 -133 -2 -3 -13 5 -26 17 -95 89
-299 25 -338 -106 -18 -63 -1 -134 71 -294 l62 -136 73 33 c41 18 183 82 317
141 134 59 247 111 252 115 9 8 -20 85 -35 95 -5 3 -63 -20 -129 -50 l-121
-55 -30 62 c-16 34 -29 68 -29 75 0 7 41 64 90 126 50 63 90 120 89 128 0 7
-10 35 -22 62 l-22 49 -99 -129z m-207 -194 c19 0 65 -59 91 -117 49 -108 53
-98 -46 -143 -134 -62 -123 -65 -166 39 -45 106 -48 148 -14 180 27 26 94 52
114 46 8 -3 17 -5 21 -5z"/>
<path d="M5647 7285 c-20 -14 -37 -28 -37 -30 0 -2 29 -50 65 -107 36 -56 65
-105 65 -108 0 -8 -165 -110 -177 -110 -4 1 -46 61 -92 135 -52 84 -87 132
-95 128 -46 -27 -67 -47 -61 -61 3 -9 53 -92 112 -185 78 -125 109 -167 121
-162 8 3 119 71 246 152 127 80 257 163 289 183 l57 36 -30 47 -29 46 -127
-80 c-69 -44 -127 -79 -129 -77 -1 2 -30 48 -65 103 -34 55 -66 103 -69 107
-4 4 -23 -4 -44 -17z"/>
<path d="M8805 4459 c-33 -5 -100 -13 -150 -18 -96 -11 -144 -20 -160 -29 -5
-3 -32 -7 -60 -8 -71 -3 -134 -15 -141 -25 -3 -5 -17 -9 -32 -9 -15 0 -36 -6
-47 -14 -11 -7 -42 -16 -70 -20 -27 -4 -60 -14 -72 -22 -12 -8 -27 -14 -33
-14 -6 0 -30 -8 -53 -18 -23 -10 -62 -27 -87 -37 -25 -10 -54 -27 -66 -37 -11
-10 -27 -18 -35 -18 -8 0 -30 -11 -49 -25 -19 -14 -40 -25 -47 -25 -7 0 -13
-5 -13 -10 0 -6 -12 -16 -27 -23 -16 -6 -43 -27 -62 -44 -19 -18 -37 -33 -41
-33 -13 0 -120 -113 -120 -127 0 -7 -11 -18 -25 -25 -13 -6 -31 -25 -40 -42
-9 -17 -29 -51 -45 -76 -16 -25 -33 -52 -36 -60 -4 -8 -18 -39 -31 -68 -29
-64 -22 -79 16 -37 15 17 49 43 75 59 37 22 45 31 35 38 -10 7 -7 7 9 3 12 -3
22 -3 22 2 0 5 15 17 33 28 17 10 50 33 71 52 22 18 43 33 47 33 5 0 19 10 33
23 13 12 44 32 68 44 23 12 58 33 77 48 19 14 39 25 44 25 6 0 38 18 73 40 35
22 67 40 71 40 11 0 105 50 123 65 8 7 30 16 47 20 18 3 35 11 38 16 5 8 56
33 165 82 14 6 42 22 62 34 21 13 44 23 52 23 8 0 45 15 83 33 67 33 119 55
238 104 33 13 68 28 77 33 10 6 24 10 32 10 8 0 18 5 21 10 3 6 3 9 -2 8 -4 0
-35 -5 -68 -9z"/>
</g>
</svg>
