<?xml version="1.0" standalone="no"?>
<!DOCTYPE svg PUBLIC "-//W3C//DTD SVG 20010904//EN"
 "http://www.w3.org/TR/2001/REC-SVG-20010904/DTD/svg10.dtd">
<svg version="1.0" xmlns="http://www.w3.org/2000/svg"
 width="191.000000pt" height="191.000000pt" viewBox="0 0 191.000000 191.000000"
 preserveAspectRatio="xMidYMid meet">
<metadata>
Created by potrace 1.11, written by Peter Selinger 2001-2013
</metadata>
<g transform="translate(0.000000,191.000000) scale(0.100000,-0.100000)"
fill="#000000" stroke="none">
<path d="M0 1231 c0 -490 3 -687 12 -711 9 -26 9 -35 0 -38 -9 -3 -12 -70 -12
-243 l0 -239 115 0 115 0 0 25 c0 64 76 156 141 170 27 6 41 25 19 25 -12 0
-60 49 -60 61 0 4 -9 11 -20 14 -11 3 -20 11 -20 18 0 6 -12 23 -26 38 -14 14
-26 33 -27 40 -2 8 -5 19 -9 24 -3 6 -14 39 -23 75 -9 36 -18 72 -21 81 -3 9
3 24 11 33 15 15 15 16 -2 16 -13 0 -15 2 -5 9 8 4 15 35 17 73 4 56 2 68 -15
83 -15 14 -17 21 -9 32 9 10 8 18 -4 31 -22 24 -22 24 -8 50 7 14 8 22 1 22
-5 0 -10 8 -10 18 0 11 3 13 8 5 4 -6 8 12 9 39 3 57 36 118 66 118 9 0 17 4
17 8 0 13 69 31 125 32 28 1 100 -1 160 -5 178 -11 226 11 171 76 -14 17 -26
26 -26 21 0 -6 -17 -5 -43 3 -47 14 -166 12 -225 -5 -20 -5 -51 -10 -69 -10
-51 0 -123 -39 -123 -66 0 -6 -11 -19 -25 -28 -14 -9 -25 -23 -25 -32 0 -9 -5
-13 -12 -10 -7 3 -21 9 -30 12 -37 13 -14 129 34 174 12 11 19 20 15 20 -3 0
11 18 32 40 21 22 44 40 51 40 11 0 11 3 2 12 -17 17 -15 28 7 28 10 0 21 6
24 14 3 8 25 17 48 21 23 4 37 10 31 14 -6 3 41 6 104 6 88 0 114 3 114 13 0
10 5 9 17 -3 15 -16 17 -15 28 4 8 17 13 19 23 9 9 -9 12 -9 12 0 0 7 -8 15
-17 18 -10 3 -25 9 -33 13 -9 5 -30 12 -48 15 -36 9 -49 23 -34 38 13 13 -3
49 -21 47 -45 -6 -78 4 -107 31 -18 17 -37 30 -42 30 -6 0 -5 7 3 16 12 14 14
14 26 -3 13 -17 15 -17 33 7 11 14 20 38 20 53 0 15 6 30 14 33 9 3 12 12 9
21 -5 13 -1 15 18 10 18 -5 28 -1 37 13 8 13 9 20 1 20 -5 0 -7 5 -4 10 5 8
11 7 21 -1 11 -9 18 -9 26 -1 7 7 21 12 31 12 13 0 17 5 14 14 -3 8 -1 17 6
20 7 2 -133 5 -310 5 l-323 1 0 -679z m401 496 c-10 -9 -11 -8 -5 6 3 10 9 15
12 12 3 -3 0 -11 -7 -18z m319 -559 c0 -19 -25 -23 -67 -12 -27 7 -31 41 -5
46 28 6 72 -15 72 -34z m-160 22 c0 -5 -4 -10 -10 -10 -5 0 -10 5 -10 10 0 6
5 10 10 10 6 0 10 -4 10 -10z"/>
<path d="M1052 1898 c6 -17 86 -57 115 -57 12 -1 37 -14 55 -29 18 -16 40 -31
49 -34 16 -6 39 -86 43 -152 1 -26 9 -44 25 -57 29 -24 18 -36 -61 -68 -53
-21 -60 -27 -57 -47 0 -4 -5 -11 -13 -15 -16 -11 64 -5 81 5 6 4 54 10 105 13
76 4 96 2 109 -11 8 -9 21 -16 27 -16 26 0 54 -50 68 -123 12 -57 1 -66 -55
-49 -19 6 -32 8 -29 5 3 -3 1 -12 -4 -18 -7 -9 -23 -10 -52 -5 -23 5 -46 6
-52 5 -6 -2 -42 -6 -81 -10 -79 -6 -92 -14 -75 -45 6 -12 9 -29 5 -37 -5 -14
10 -15 144 -9 123 5 152 4 164 -8 8 -8 23 -16 33 -18 22 -4 51 -32 59 -59 4
-11 14 -19 23 -19 12 0 14 -2 4 -8 -9 -6 -11 -33 -6 -103 3 -52 7 -125 9 -164
5 -74 -13 -167 -46 -239 -10 -23 -19 -53 -19 -68 0 -16 -4 -28 -8 -28 -4 0
-13 -12 -20 -27 -23 -53 -57 -108 -64 -103 -3 3 -16 -7 -28 -23 -12 -15 -26
-25 -30 -22 -5 3 -19 -4 -30 -15 -15 -15 -31 -20 -53 -18 -28 3 -34 -1 -49
-35 -10 -20 -23 -37 -28 -37 -6 0 -10 -6 -10 -14 0 -8 -6 -21 -13 -28 -7 -7
-32 -34 -56 -61 l-44 -47 362 0 361 0 0 955 0 955 -431 0 c-340 0 -430 -3
-427 -12z m412 -707 c3 -5 -1 -12 -10 -15 -22 -9 -24 -8 -24 9 0 16 25 21 34
6z"/>
<path d="M626 1261 c5 -5 20 -12 34 -15 l25 -7 -25 15 c-28 17 -50 21 -34 7z"/>
<path d="M1160 1176 c0 -20 11 -46 19 -46 4 0 7 10 5 23 -1 12 -3 25 -3 30 -2
13 -21 7 -21 -7z"/>
<path d="M1140 1037 c0 -19 16 -31 24 -18 3 5 -1 14 -9 21 -12 10 -15 10 -15
-3z"/>
<path d="M1159 993 c-4 -37 0 -86 8 -94 6 -6 25 -18 44 -27 19 -9 38 -27 44
-39 11 -26 25 -30 25 -8 0 28 -29 73 -65 101 -19 14 -35 35 -35 45 0 17 -19
38 -21 22z"/>
<path d="M870 770 c-11 -7 -3 -10 28 -10 26 0 41 4 37 10 -8 13 -45 13 -65 0z"/>
<path d="M1150 765 c-10 -12 -10 -15 4 -15 9 0 16 4 16 9 0 5 8 12 18 14 13 4
13 5 -4 6 -12 0 -27 -6 -34 -14z"/>
<path d="M560 740 c0 -5 5 -10 10 -10 6 0 10 5 10 10 0 6 -4 10 -10 10 -5 0
-10 -4 -10 -10z"/>
<path d="M530 619 c0 -5 5 -7 10 -4 6 3 10 8 10 11 0 2 -4 4 -10 4 -5 0 -10
-5 -10 -11z"/>
<path d="M1144 576 c-10 -8 -24 -12 -30 -9 -7 2 -22 -5 -33 -16 -19 -19 -36
-21 -208 -26 -104 -3 -213 -10 -243 -14 -54 -7 -54 -8 -27 -19 16 -7 34 -12
42 -12 7 0 15 -4 17 -10 3 -10 119 -29 182 -30 32 0 36 2 27 14 -8 10 -9 16
-1 21 6 3 8 10 5 15 -9 15 61 23 110 12 30 -6 57 -7 74 -1 16 6 44 6 66 1 37
-8 40 -11 39 -40 -2 -32 -2 -32 40 -26 22 4 46 10 51 14 6 4 29 11 53 15 23 4
40 10 37 15 -3 5 1 11 7 13 10 4 10 8 -1 15 -9 7 -10 12 -2 16 6 4 21 0 33 -8
16 -11 25 -13 35 -4 19 16 16 31 -6 25 -11 -3 -28 1 -38 8 -21 14 -53 21 -138
30 -32 4 -62 8 -66 10 -3 3 -14 -2 -25 -9z"/>
<path d="M505 557 c-4 -17 -3 -33 2 -38 14 -14 21 10 13 41 l-7 25 -8 -28z"/>
<path d="M1482 560 c0 -14 2 -19 5 -12 2 6 2 18 0 25 -3 6 -5 1 -5 -13z"/>
<path d="M572 111 c-10 -6 -9 -17 5 -57 l19 -49 104 -3 105 -2 -33 20 c-18 11
-39 20 -47 20 -8 0 -15 3 -15 8 0 9 -58 42 -75 42 -7 0 -18 7 -25 15 -14 17
-20 18 -38 6z"/>
</g>
</svg>
