<?xml version="1.0" standalone="no"?>
<!DOCTYPE svg PUBLIC "-//W3C//DTD SVG 20010904//EN"
 "http://www.w3.org/TR/2001/REC-SVG-20010904/DTD/svg10.dtd">
<svg version="1.0" xmlns="http://www.w3.org/2000/svg"
 width="297.000000pt" height="297.000000pt" viewBox="0 0 297.000000 297.000000"
 preserveAspectRatio="xMidYMid meet">
<metadata>
Created by potrace 1.11, written by Peter Selinger 2001-2013
</metadata>
<g transform="translate(0.000000,297.000000) scale(0.100000,-0.100000)"
fill="#000000" stroke="none">
<path d="M0 2094 c0 -784 2 -875 15 -864 9 7 18 10 22 7 3 -4 5 -53 5 -109 -1
-71 2 -105 11 -110 9 -6 9 -8 0 -8 -7 0 -13 -4 -13 -10 0 -5 7 -10 15 -10 15
0 19 -16 16 -53 -2 -10 8 -21 22 -26 14 -6 26 -14 28 -20 8 -22 26 7 51 84 29
87 35 137 24 201 -7 42 10 74 34 59 15 -9 30 36 18 59 -11 20 16 106 33 106
14 0 11 33 -6 58 -12 17 -13 26 -5 42 6 11 10 28 8 37 -2 11 8 23 25 31 24 12
28 18 22 40 -4 15 -13 34 -21 43 -8 8 -14 23 -14 32 0 24 31 21 37 -2 4 -15 8
-17 17 -8 13 11 13 32 0 75 -5 17 -2 22 12 22 16 0 23 18 42 113 12 61 27 126
32 142 5 17 12 48 16 70 8 44 29 82 38 67 3 -5 1 -24 -4 -41 -5 -18 -7 -47 -5
-64 4 -27 4 -28 -3 -7 -7 22 -9 23 -15 7 -11 -28 -8 -49 4 -41 8 5 10 -3 6
-27 -3 -19 -9 -74 -13 -122 -5 -75 -4 -90 11 -107 15 -17 16 -26 3 -101 -12
-75 -16 -84 -38 -89 -17 -4 -24 -12 -22 -24 2 -11 -1 -15 -7 -11 -17 10 -13
-3 10 -34 19 -25 20 -38 15 -127 -3 -54 -5 -102 -6 -106 0 -5 -6 -8 -14 -8
-15 0 -21 -29 -30 -147 -2 -33 0 -65 5 -70 6 -6 4 -23 -5 -44 -17 -41 -39
-227 -34 -289 2 -38 -1 -48 -21 -65 -17 -13 -26 -16 -29 -7 -2 7 -8 12 -14 12
-6 0 -7 -7 -4 -16 7 -18 -79 -113 -101 -114 -7 0 -13 -4 -13 -9 0 -5 -15 -25
-33 -44 -17 -20 -52 -80 -77 -134 -44 -96 -45 -101 -48 -215 l-4 -118 161 0
161 0 0 28 c0 15 4 34 9 41 6 10 8 0 4 -27 l-6 -42 1322 0 1321 0 0 68 c0 51
-5 75 -21 102 -18 28 -20 45 -16 95 2 33 3 52 0 43 -2 -10 -8 -18 -13 -18 -12
0 -30 83 -24 110 5 20 3 22 -5 10 -11 -15 -15 -8 -12 22 2 13 -4 17 -21 15
-18 -1 -23 3 -23 21 0 15 -15 36 -40 57 -39 32 -40 34 -28 66 7 18 11 34 9 37
-2 2 -7 -6 -11 -18 -8 -24 -38 -24 -43 1 -3 19 54 115 91 151 22 22 37 58 24
58 -2 0 -20 -23 -41 -50 -22 -29 -46 -50 -57 -50 -38 0 -19 39 55 112 74 73
75 75 100 169 14 52 23 104 19 117 -4 16 -1 22 10 22 38 0 41 63 44 963 l3
867 -634 0 c-498 0 -635 -3 -639 -12 -4 -10 -6 -10 -6 0 -1 9 -177 12 -846 12
l-845 0 0 -876z m1860 755 c0 -11 -4 -17 -10 -14 -5 3 -10 13 -10 21 0 8 5 14
10 14 6 0 10 -9 10 -21z m700 -113 c0 -11 -19 -15 -25 -6 -3 5 1 10 9 10 9 0
16 -2 16 -4z m-30 -26 c0 -5 -2 -10 -4 -10 -3 0 -8 5 -11 10 -3 6 -1 10 4 10
6 0 11 -4 11 -10z m-18 -77 c-3 -24 -13 -46 -28 -59 -17 -15 -22 -27 -18 -40
5 -13 4 -16 -3 -9 -6 6 -14 20 -18 33 -5 17 -2 22 10 22 11 0 15 5 11 16 -4 9
-2 13 5 8 7 -4 9 0 5 14 -5 14 0 25 16 36 12 9 23 16 23 16 1 0 -1 -17 -3 -37z
m-1442 -109 c0 -8 -4 -12 -10 -9 -5 3 -10 13 -10 21 0 8 5 12 10 9 6 -3 10
-13 10 -21z m1200 -28 c0 -3 -4 -8 -10 -11 -5 -3 -10 -1 -10 4 0 6 5 11 10 11
6 0 10 -2 10 -4z m320 -26 c0 -5 -5 -10 -11 -10 -5 0 -7 5 -4 10 3 6 8 10 11
10 2 0 4 -4 4 -10z m-333 -30 c1 -16 -2 -32 -7 -35 -6 -4 -10 9 -10 29 0 43
14 48 17 6z m83 12 c0 -19 18 -42 33 -42 4 0 5 5 1 12 -5 8 -2 9 11 4 11 -4
22 -2 27 6 5 8 8 9 8 2 0 -7 11 -9 25 -6 16 3 24 10 23 20 -4 24 29 27 37 3 8
-27 -41 -121 -64 -121 -10 0 -23 11 -29 25 -7 14 -20 29 -29 32 -25 10 -41 27
-53 57 -6 17 -6 26 0 26 6 0 10 -8 10 -18z m-1568 -74 c-5 -31 -6 -32 -12 -8
-3 14 -3 27 2 28 4 2 5 9 2 14 -4 6 -3 8 3 5 5 -3 7 -21 5 -39z m1505 -82
c-10 -22 -13 -23 -21 -8 -8 14 -10 14 -17 -3 -7 -19 -8 -19 -8 1 -1 26 7 34
35 34 20 0 21 -2 11 -24z m250 4 c23 0 32 -23 13 -35 -14 -9 -60 24 -60 43 0
12 3 13 12 4 7 -7 22 -12 35 -12z m330 -12 c-3 -8 -6 -5 -6 6 -1 11 2 17 5 13
3 -3 4 -12 1 -19z m-457 -3 c7 -9 8 -15 2 -15 -5 0 -12 7 -16 15 -3 8 -4 15
-2 15 2 0 9 -7 16 -15z m67 -47 c-3 -8 -6 -5 -6 6 -1 11 2 17 5 13 3 -3 4 -12
1 -19z m53 -8 c0 -5 -5 -10 -11 -10 -5 0 -7 5 -4 10 3 6 8 10 11 10 2 0 4 -4
4 -10z m-290 -75 c11 -13 10 -14 -4 -9 -9 3 -16 10 -16 15 0 13 6 11 20 -6z
m-29 -12 c13 -15 12 -15 -8 -4 -24 12 -29 21 -14 21 5 0 15 -7 22 -17z m-333
-340 c39 -60 67 -120 49 -104 -9 7 -35 50 -57 95 -22 44 -34 73 -28 62 7 -10
23 -34 36 -53z m-539 -34 c-16 -10 -23 -4 -14 10 3 6 11 8 17 5 6 -4 5 -9 -3
-15z m-189 -13 c0 -9 7 -12 20 -9 34 9 22 -17 -14 -32 -44 -18 -55 -35 -20
-29 26 5 27 4 20 -38 -4 -23 -12 -48 -17 -55 -6 -6 -12 -22 -14 -35 -3 -22
-10 -51 -16 -73 -2 -5 7 -31 19 -57 12 -26 22 -51 22 -57 0 -5 4 -11 10 -13 5
-1 11 -34 14 -73 2 -38 7 -82 11 -98 6 -22 4 -26 -9 -21 -9 3 -16 10 -16 14 0
4 -7 11 -16 14 -14 6 -15 4 -4 -9 11 -14 10 -17 -10 -22 -22 -6 -23 -7 -4 -14
16 -7 17 -8 2 -8 -19 -1 -26 -21 -7 -21 18 0 5 -33 -13 -36 -10 -1 -18 2 -18
7 0 5 -5 9 -11 9 -6 0 -8 -9 -4 -20 4 -12 2 -20 -5 -20 -7 0 -5 -8 4 -22 21
-29 21 -78 1 -78 -23 0 -35 34 -33 97 1 32 -4 96 -10 143 -25 177 -13 333 34
431 61 130 84 164 84 125z m1520 -6 c-6 -11 -16 -20 -22 -20 -6 0 -3 9 7 20
10 11 20 20 22 20 2 0 -1 -9 -7 -20z m-1999 -12 c-5 -13 -12 -23 -17 -23 -5 0
-15 -4 -21 -8 -8 -5 -13 -4 -13 2 0 6 9 15 20 21 11 6 18 15 15 21 -4 5 1 9 9
9 12 0 13 -5 7 -22z m632 -6 c-3 -12 -9 -19 -14 -16 -5 3 -3 14 3 24 15 24 19
21 11 -8z m-1097 -79 c-10 -10 -19 5 -10 18 6 11 8 11 12 0 2 -7 1 -15 -2 -18z
m2302 -65 c-6 -18 -13 -27 -15 -21 -4 11 13 53 22 53 2 0 -1 -15 -7 -32z
m-130 -70 c-13 -13 -18 -29 -15 -44 2 -13 0 -21 -4 -18 -5 3 -9 1 -9 -4 0 -5
-7 -9 -15 -9 -9 0 -14 3 -13 6 24 49 64 107 69 99 4 -6 -2 -19 -13 -30z m-398
-18 c0 -5 -5 -10 -11 -10 -5 0 -7 5 -4 10 3 6 8 10 11 10 2 0 4 -4 4 -10z
m508 3 c-2 -5 -11 -24 -20 -43 -17 -37 -66 -86 -76 -76 -3 4 0 12 6 18 16 16
16 41 0 32 -8 -5 -9 -2 -5 10 4 10 7 19 7 22 0 2 7 1 15 -2 9 -4 15 0 15 10 0
9 7 16 15 16 8 0 15 5 15 10 0 6 7 10 16 10 9 0 14 -3 12 -7z m234 -28 c-5
-18 -11 -25 -16 -17 -4 6 -2 21 4 33 15 28 21 20 12 -16z m-482 15 c0 -5 -5
-10 -11 -10 -5 0 -7 5 -4 10 3 6 8 10 11 10 2 0 4 -4 4 -10z m325 -42 c-11
-36 -25 -45 -25 -17 0 27 7 39 22 39 5 0 6 -10 3 -22z m142 -30 c-3 -8 -6 -5
-6 6 -1 11 2 17 5 13 3 -3 4 -12 1 -19z m-1464 -105 c5 -8 3 -13 -6 -13 -19 0
-27 22 -26 73 l1 42 12 -45 c6 -25 15 -51 19 -57z m1248 74 c-10 -9 -11 -8 -5
6 3 10 9 15 12 12 3 -3 0 -11 -7 -18z m238 -28 c-19 -11 -24 -3 -8 14 8 9 16
11 18 5 2 -6 -3 -14 -10 -19z m-23 -22 c8 -4 14 -20 13 -35 l0 -27 -12 25 c-6
14 -17 28 -24 33 -7 4 -9 15 -6 24 5 14 8 14 11 2 3 -7 11 -18 18 -22z m-575
-60 c-8 -8 -11 -7 -11 4 0 9 3 19 7 23 4 4 9 2 11 -4 3 -7 -1 -17 -7 -23z
m204 14 c3 -5 1 -12 -5 -16 -5 -3 -10 1 -10 9 0 18 6 21 15 7z m65 -53 c0 -38
-5 -34 -13 10 -4 21 -3 31 3 27 6 -3 10 -20 10 -37z m316 16 c-3 -9 -6 -22 -6
-30 0 -8 -4 -14 -10 -14 -11 0 -14 43 -3 53 12 13 25 7 19 -9z m-425 -96 c1
-7 1 -23 1 -35 -1 -13 3 -23 8 -23 9 0 14 14 11 33 0 4 5 7 12 7 9 0 14 -13
15 -35 1 -34 -10 -46 -23 -25 -3 6 -14 10 -23 10 -13 0 -14 -2 -4 -9 11 -6 10
-10 -4 -15 -10 -4 -24 -1 -33 8 -12 13 -13 21 -1 56 12 38 38 55 41 28z m-328
-33 c-3 -9 -8 -14 -10 -11 -3 3 -2 9 2 15 9 16 15 13 8 -4z m-970 -12 c2 -5
-7 -19 -21 -32 -14 -14 -22 -18 -18 -10 3 8 9 22 12 32 7 18 20 23 27 10z
m984 -15 c-3 -8 -6 -5 -6 6 -1 11 2 17 5 13 3 -3 4 -12 1 -19z m-1877 -48 c0
-5 -9 -10 -20 -10 -11 0 -20 5 -20 10 0 6 9 10 20 10 11 0 20 -4 20 -10z
m2188 -26 c-10 -10 -21 -13 -29 -8 -12 7 0 14 41 23 2 1 -3 -6 -12 -15z
m-1378 2 c0 -2 -7 -7 -16 -10 -8 -3 -12 -2 -9 4 6 10 25 14 25 6z m-74 -71 c0
-25 -3 -40 -7 -34 -10 17 -20 -6 -13 -28 6 -14 4 -16 -6 -6 -11 10 -11 18 -2
38 7 15 10 31 6 36 -5 8 12 39 21 39 1 0 2 -20 1 -45z m1668 -121 c-3 -47 -14
-57 -14 -12 0 28 6 48 14 48 1 0 1 -16 0 -36z m-57 11 c9 -24 -1 -27 -15 -5
-8 13 -8 20 -2 20 6 0 13 -7 17 -15z m253 -110 c0 -5 -5 -3 -10 5 -5 8 -10 20
-10 25 0 6 5 3 10 -5 5 -8 10 -19 10 -25z m-2446 -420 c15 -11 17 -18 8 -27
-13 -13 -42 6 -42 28 0 18 10 17 34 -1z m225 -170 c-12 -12 -44 19 -34 35 5 8
12 6 25 -7 11 -11 14 -22 9 -28z m-139 -35 c0 -5 -4 -10 -10 -10 -5 0 -10 5
-10 10 0 6 5 10 10 10 6 0 10 -4 10 -10z m1150 -34 c0 -3 -4 -8 -10 -11 -5 -3
-10 -1 -10 4 0 6 5 11 10 11 6 0 10 -2 10 -4z"/>
<path d="M440 1699 c0 -5 5 -7 10 -4 6 3 10 8 10 11 0 2 -4 4 -10 4 -5 0 -10
-5 -10 -11z"/>
<path d="M253 1103 c-14 -29 -9 -43 8 -26 6 6 9 20 7 32 -3 19 -4 19 -15 -6z"/>
<path d="M332 1100 c0 -14 2 -19 5 -12 2 6 2 18 0 25 -3 6 -5 1 -5 -13z"/>
<path d="M321 1044 c0 -11 3 -14 6 -6 3 7 2 16 -1 19 -3 4 -6 -2 -5 -13z"/>
<path d="M237 1004 c-3 -3 -3 -13 0 -22 4 -10 2 -13 -5 -8 -7 4 -12 2 -12 -3
0 -6 7 -11 15 -11 9 0 15 9 15 25 0 26 -2 29 -13 19z"/>
<path d="M311 984 c0 -11 3 -14 6 -6 3 7 2 16 -1 19 -3 4 -6 -2 -5 -13z"/>
<path d="M39 979 c-9 -48 -8 -59 6 -59 12 0 14 6 9 28 -7 26 -13 40 -15 31z"/>
<path d="M2962 920 c0 -14 2 -19 5 -12 2 6 2 18 0 25 -3 6 -5 1 -5 -13z"/>
<path d="M200 892 c-12 -45 -12 -76 0 -47 l9 20 1 -20 c0 -16 2 -17 9 -5 17
31 21 78 6 84 -10 3 -17 -6 -25 -32z m17 -14 c-3 -7 -5 -2 -5 12 0 14 2 19 5
13 2 -7 2 -19 0 -25z"/>
<path d="M30 882 c0 -10 -2 -21 -5 -24 -3 -3 -7 -50 -8 -104 -1 -54 -1 -91 1
-82 3 14 7 16 23 8 15 -8 19 -22 19 -61 0 -60 24 -65 26 -6 1 20 7 43 13 51
18 21 -15 96 -42 96 -17 0 -18 7 -15 70 2 39 0 70 -4 70 -5 0 -8 -8 -8 -18z
m17 -174 c-3 -8 -6 -5 -6 6 -1 11 2 17 5 13 3 -3 4 -12 1 -19z"/>
<path d="M290 881 c0 -5 -3 -17 -6 -26 -4 -10 -2 -15 7 -13 29 6 41 48 14 48
-8 0 -15 -4 -15 -9z"/>
<path d="M50 844 c0 -27 17 -31 45 -11 17 13 16 15 -13 25 -30 10 -32 10 -32
-14z"/>
<path d="M2891 854 c0 -11 3 -14 6 -6 3 7 2 16 -1 19 -3 4 -6 -2 -5 -13z"/>
<path d="M2942 843 c4 -39 28 -42 28 -4 0 21 -5 31 -16 31 -11 0 -14 -8 -12
-27z"/>
<path d="M287 823 c-11 -10 -8 -20 8 -27 10 -4 15 1 15 14 0 20 -11 26 -23 13z"/>
<path d="M104 812 c-7 -4 -8 -18 -2 -39 10 -39 27 -43 30 -8 0 14 1 30 2 37 1
14 -15 20 -30 10z"/>
<path d="M52 790 c0 -14 2 -19 5 -12 2 6 2 18 0 25 -3 6 -5 1 -5 -13z"/>
<path d="M2875 797 c-4 -10 -5 -21 -1 -24 10 -10 18 4 13 24 -4 17 -4 17 -12
0z"/>
<path d="M2916 774 c-8 -30 -8 -29 20 -38 18 -5 22 -2 26 19 4 18 0 29 -13 35
-25 14 -26 13 -33 -16z"/>
<path d="M272 745 c1 -16 9 -30 16 -33 18 -6 15 33 -4 49 -14 11 -15 9 -12
-16z"/>
<path d="M2900 701 c0 -11 39 -25 47 -18 3 3 2 10 -2 16 -8 13 -45 15 -45 2z"/>
<path d="M2827 640 c-10 -33 -17 -64 -17 -70 0 -14 27 -2 27 13 1 7 8 36 16
65 10 39 11 52 2 52 -6 0 -19 -27 -28 -60z"/>
<path d="M2881 642 c-23 -83 -24 -99 -6 -106 24 -9 31 -2 44 48 15 62 14 74
-9 86 -17 9 -20 6 -29 -28z"/>
<path d="M16 642 c-4 -7 -9 -81 -7 -112 2 -31 31 44 31 81 0 35 -12 51 -24 31z"/>
<path d="M2931 564 c0 -11 3 -14 6 -6 3 7 2 16 -1 19 -3 4 -6 -2 -5 -13z"/>
<path d="M140 550 c0 -19 3 -21 12 -12 9 9 9 15 0 24 -9 9 -12 7 -12 -12z"/>
<path d="M46 525 c-9 -26 -7 -32 5 -12 6 10 9 21 6 23 -2 3 -7 -2 -11 -11z"/>
<path d="M8 455 c-2 -19 0 -41 4 -48 4 -7 8 9 8 36 0 55 -6 62 -12 12z"/>
<path d="M2901 444 c0 -11 3 -14 6 -6 3 7 2 16 -1 19 -3 4 -6 -2 -5 -13z"/>
<path d="M2951 407 c-16 -42 -12 -68 5 -28 8 18 13 38 11 45 -3 6 -10 -2 -16
-17z"/>
</g>
</svg>
